<?xml version="1.0" encoding="UTF-8" standalone="no"?>
<!-- Created with Inkscape (http://www.inkscape.org/) -->

<svg
   xmlns:dc="http://purl.org/dc/elements/1.1/"
   xmlns:cc="http://creativecommons.org/ns#"
   xmlns:rdf="http://www.w3.org/1999/02/22-rdf-syntax-ns#"
   xmlns:svg="http://www.w3.org/2000/svg"
   xmlns="http://www.w3.org/2000/svg"
   xmlns:sodipodi="http://sodipodi.sourceforge.net/DTD/sodipodi-0.dtd"
   xmlns:inkscape="http://www.inkscape.org/namespaces/inkscape"
   width="459.61902mm"
   height="58.208332mm"
   viewBox="0 0 459.61901 58.208332"
   version="1.1"
   id="svg4494"
   inkscape:version="0.92.1 r15371"
   sodipodi:docname="swirly_royalty_free.svg">
  <defs
     id="defs4488" />
  <sodipodi:namedview
     id="base"
     pagecolor="#ffffff"
     bordercolor="#666666"
     borderopacity="1.0"
     inkscape:pageopacity="0.0"
     inkscape:pageshadow="2"
     inkscape:zoom="0.35"
     inkscape:cx="496.02908"
     inkscape:cy="340.49286"
     inkscape:document-units="mm"
     inkscape:current-layer="g208"
     showgrid="false"
     fit-margin-top="0"
     fit-margin-left="0"
     fit-margin-right="0"
     fit-margin-bottom="0"
     inkscape:window-width="1920"
     inkscape:window-height="1001"
     inkscape:window-x="-9"
     inkscape:window-y="-9"
     inkscape:window-maximized="1" />
  <metadata
     id="metadata4491">
    <rdf:RDF>
      <cc:Work
         rdf:about="">
        <dc:format>image/svg+xml</dc:format>
        <dc:type
           rdf:resource="http://purl.org/dc/dcmitype/StillImage" />
        <dc:title></dc:title>
      </cc:Work>
    </rdf:RDF>
  </metadata>
  <g
     inkscape:label="Layer 1"
     inkscape:groupmode="layer"
     id="layer1"
     transform="translate(78.387836,16.745042)">
    <g
       transform="matrix(0.26458333,0,0,0.26458333,-104.2671,-288.25886)"
       id="g208">
      <rect
         style="opacity:1;vector-effect:none;fill:#ffffff;fill-opacity:1;fill-rule:nonzero;stroke:none;stroke-width:2;stroke-linecap:butt;stroke-linejoin:miter;stroke-miterlimit:4;stroke-dasharray:none;stroke-dashoffset:0;stroke-opacity:1"
         id="rect5099"
         width="1737.1428"
         height="220"
         x="97.811394"
         y="1026.194" />
      <path
         style="fill:#997fb8;stroke:#020202;stroke-width:0.0938;fill-opacity:0.80000001"
         inkscape:connector-curvature="0"
         d="m 962.88,1042.8 c 4.27,-8.15 16.99,-9.7201 22.81,-2.4601 5.49,6.86 5.96,16.24 5.96,24.6801 -0.77,10.36 -4.6,20.1699 -7.53,30.0699 -5.13,14.5601 -6.08,30.0901 -8.81,45.1901 -2.01,-11.72 -3.25,-23.5901 -5.86,-35.2001 -2.69,-9.87 -6.54,-19.38 -9.23,-29.24 -3.35,-10.7499 -2.82,-23.0899 2.66,-33.0399 z"
         id="path154" />
      <path
         style="fill:#997fb8;stroke:#020202;stroke-width:0.0938;fill-opacity:0.80000001"
         inkscape:connector-curvature="0"
         d="m 414.22,1068.59 c 3.07,5.78 9.31,8.98 12.3,14.76 2.7,5.3 -1.06,11.2001 -5.62,13.97 -2.18,-0.59 -3.75,-2.47 -5.93,-3 -2.82,-0.1899 -5.09,1.75 -7.32,3.17 -4.08,-2.92 -7.96,-7.79 -6.08,-13.11 2.49,-6.5 9.54,-9.63 12.65,-15.79 z"
         id="path156" />
      <path
         style="fill:#997fb8;stroke:#020202;stroke-width:0.0938;fill-opacity:0.80000001"
         inkscape:connector-curvature="0"
         d="m 1517.9399,1077.96 c 3.0701,-2.75 5.8201,-5.8099 8.1101,-9.24 3.2899,5.92 10.01,9.1801 12.6,15.51 2.14,5.29 -1.85,10.39 -6.04,13.21 -2.27,-1.47 -4.62,-3.3999 -7.49,-3.09 -2.01,0.65 -3.62,2.09 -5.38,3.1801 -3.23,-2.26 -6.37,-5.3201 -6.84,-9.4301 -0.27,-4.0301 2.15,-7.58 5.0399,-10.14 z"
         id="path158" />
      <path
         style="fill:#997fb8;stroke:#020202;stroke-width:0.0938;fill-opacity:0.80000001"
         inkscape:connector-curvature="0"
         d="m 914.49,1075.49 c 3.25,-3 8.14,-3.5599 12.22,-2.09 6.2,2.0599 11,6.83 15.1,11.74 5.96,7.47 10.61,15.96 13.87,24.9399 1.88,5.39 3.49,11.26 1.85,16.9401 -4.15,-6.46 -9.17,-12.5 -15.6,-16.8101 -8.57,-6.0499 -19.88,-7.25 -27.63,-14.59 -5.78,-5.0699 -5.68,-15.18 0.19,-20.1299 z"
         id="path160" />
      <path
         style="fill:#997fb8;stroke:#020202;stroke-width:0.0938;fill-opacity:0.80000001"
         inkscape:connector-curvature="0"
         d="m 1013.52,1078.51 c 4.22,-3.62 9.73,-6.67 15.47,-5.6901 6.05,1.0801 10.27,7.2201 9.89,13.2201 0.15,5.1899 -3.42,9.5599 -7.53,12.3099 -9.45,6.27 -21.11,8.7101 -29.73,16.3101 -4.18,3.45 -7.21,7.99 -10.31,12.37 -1.8,-7.48 1.03,-14.9401 3.84,-21.77 4.41,-9.91 10.15,-19.53 18.37,-26.75 z"
         id="path162" />
      <path
         style="fill:#997fb8;stroke:#020202;stroke-width:0.0938;fill-opacity:0.80000001"
         inkscape:connector-curvature="0"
         d="m 298.75,1081.72 c 2.59,-1.7899 5.52,0.4301 7.91,1.53 -2.39,2.89 -5.42,6.39 -3.77,10.45 0.23,0.01 0.7,0.03 0.93,0.05 -0.01,-5.26 3.57,-9.92 8.19,-12.13 2.75,-1.22 3.97,2.1801 4.1,4.3199 0.06,3.3601 0.02,7.38 -2.74,9.79 -0.36,0.89 -0.69,1.8 -1,2.74 3.74,-2.3099 5.14,-6.39 5.28,-10.58 2.65,0.99 7.72,1.71 6.89,5.58 -2.85,4.17 -8.19,5.88 -13.05,5.8201 -0.18,-0.4301 -0.55,-1.28 -0.73,-1.7001 -3.11,-0.7 -6.44,-1.46 -9.05,-3.35 -2.79,-3.3 -4.67,-8.3699 -2.96,-12.5199 z"
         id="path164" />
      <path
         style="fill:#997fb8;stroke:#020202;stroke-width:0.0938;fill-opacity:0.80000001"
         inkscape:connector-curvature="0"
         d="m 359.99,1084.73 c 6.34,-0.05 12.9,-0.83 18.41,-4.1899 -3.92,10.83 -16.46,16.59 -27.43,14.77 -6.26,-0.79 -12.75,1.0099 -17.76,4.8199 -1.04,0.5599 -1.96,1.61 -3.2,1.67 -0.63,-1.9301 1.37,-3.0801 2.42,-4.3301 7.03,-7.65 17.1,-12.6099 27.56,-12.7399 z"
         id="path166" />
      <path
         style="fill:#997fb8;stroke:#020202;stroke-width:0.0938;fill-opacity:0.80000001"
         inkscape:connector-curvature="0"
         d="m 1561.9301,1080.6 c 6.0499,3.5801 13.1799,4.13 20.0499,4.1901 11.22,0.52 21.1801,6.9199 28.37,15.21 -0.41,0.63 -0.8099,1.27 -1.1799,1.92 -5.12,-5.02 -12.5701,-7.4801 -19.67,-6.62 -10.9801,1.8599 -23.5801,-3.8801 -27.57,-14.7001 z"
         id="path168" />
      <path
         style="fill:#997fb8;stroke:#020202;stroke-width:0.0938;fill-opacity:0.80000001"
         inkscape:connector-curvature="0"
         d="m 1633.62,1083.1801 c 2.4301,-1.12 7.1901,-4.1001 8.53,-0.1901 0.5699,5.01 -1.64,10.6 -6.1,13.27 0.5399,-1.8101 1.59,-3.4401 1.86,-5.3201 -0.19,-3.1298 -2.58,-5.37 -4.29,-7.7598 z"
         id="path170" />
      <path
         style="fill:#997fb8;stroke:#020202;stroke-width:0.0938;fill-opacity:0.80000001"
         inkscape:connector-curvature="0"
         d="m 287.96,1098.97 c -1.84,-5.65 -0.25,-11.5499 1.28,-17.0499 0.6,6.6599 2.28,13.2799 5.72,19.08 1.98,3.23 3.12,6.86 3.58,10.62 2.79,-4.29 5.29,-8.76 7.78,-13.21 0.42,-0.2101 1.25,-0.63 1.66,-0.8401 -1.54,4.04 -3.89,7.7101 -6.14,11.38 -4.81,7.4501 -10.33,14.8301 -18.18,19.3 9.88,1.45 20.31,-1.25 28.12,-7.5 4,-3.67 7.51,-7.84 11.5,-11.52 2.01,-1.79 3.48,-4.0599 4.69,-6.4399 1.36,1.35 2.92,0.23 4.06,-0.79 2.34,-2.3 5.77,-2.63 8.85,-3.09 8.33,-0.9401 16.18,2.7899 23.14,6.9199 2.12,1.0601 4.09,2.79 6.57,2.8101 3.72,3.79 9.56,4.34 14.51,5.41 -2.58,-2.91 -5.5,-5.51 -8.84,-7.51 5.66,-2.9301 8.8,-8.92 14.28,-12.01 5.38,-3.15 11.93,0.59 14.57,5.58 -0.84,2.03 -2.59,3.64 -3.03,5.84 -0.13,2.7001 1.77,4.78 2.92,7.0601 -2.32,4.46 -7.85,8.03 -12.92,6.15 -2.51,-0.78 -4.32,-3.15 -7.06,-3.2001 -6.98,-0.74 -13.18,-4.2799 -19.41,-7.23 6.73,13.61 22.05,20.02 36.39,21.6801 -0.57,-2.48 -1.36,-5.16 -0.37,-7.64 1.07,-3.15 3.67,-5.37 6.24,-7.3 2.3,1.2001 4.35,3.8 7.22,3.15 2.22,-0.4 3.96,-1.96 5.87,-3.04 4.61,3.0801 8.13,8.78 5.64,14.37 2.25,-0.2799 4.68,-0.4099 6.63,0.9701 -2.57,0.14 -5.12,0.4099 -7.67,0.6899 -3.67,4.39 -8.4,7.86 -11.33,12.87 -2.76,-4.96 -7.39,-8.35 -11.11,-12.5 -13.76,-1.11 -27.74,-6.64 -36.37,-17.7999 -3.05,-3.04 -4,-8.02 -8.27,-9.7001 -6.56,-3.14 -14.4,-5.04 -21.46,-2.4399 -6.69,2.5599 -11.29,8.33 -16.01,13.4299 5.54,-1.5 11.83,-2.39 17.11,0.4501 5.59,2.98 8.76,9.0599 9.9,15.09 0.71,3.9299 2.48,7.98 6.02,10.15 2.82,1.86 6.32,1.74 9.52,2.35 -8.47,2.21 -18.16,4.8199 -26.31,0.23 -7.02,-4.01 -9.02,-12.35 -13.12,-18.73 -1.53,-2.63 -4.14,-4.23 -6.91,-5.26 -7.15,7.37 -16.86,12.48 -27.29,12.58 -7.41,-0.02 -15.46,-0.23 -21.9,-4.37 -3.38,-2.4099 -7.25,-5.5499 -6.92,-10.1599 5.61,4.2 11.86,8.2699 18.89,9.33 4.85,-1.54 9.38,-4.58 12.38,-8.72 2.11,-6.8503 -2.78,-13.0504 -4.42,-19.4404 z"
         id="path172" />
      <path
         style="fill:#997fb8;stroke:#020202;stroke-width:0.0938;fill-opacity:0.80000001"
         inkscape:connector-curvature="0"
         d="m 829.9,1090.9301 c 5.85,-6.26 14.65,-9.2201 23.11,-8.77 8.87,0.15 17.56,5.2 21.83,13.02 3.05,5.2699 3.56,12.0499 0.8799,17.58 -2.9399,6.09 -11.65,8.3099 -17.2,4.55 -4.19,-3.3501 -4.52,-10.16 -1.54,-14.39 1.9,-2.7101 5.46,-2.76 8.42,-3.2201 -1.92,-3.4299 -4.4301,-6.86 -8.35,-8.08 -8.44,-2.6899 -18.19,1.1801 -23.21,8.3199 -4.84,6.66 -5.39,15.6001 -3.3701,23.38 1.84,7.1801 7.4301,13.4501 14.6801,15.41 7.1,2.14 14.49,-0.06 21.31,-2.1799 15.61,-5.8101 31.86,-10.0701 48.41,-12 17.59,-2.14 35.78,4.83 48.07,17.4399 5.98,6.13 10.02,13.86 12.66,21.96 3.67,-14.0699 13.77,-26.0399 26.76,-32.45 8.82,-4.47 18.75,-6.97 28.6801,-6.37 12.73,0.6 25.2799,3.2 37.6,6.36 9.9,2.35 19.11,7.48 29.41,8.1 7.6599,0.4601 15.5,-3.35 19.45,-10 4.3199,-7.4099 4.97,-16.87 1.91,-24.85 -3.7101,-9.8099 -15.2001,-15.87 -25.36,-13.4 -4.2301,1.0901 -6.9301,4.78 -8.75,8.51 2.8099,0.3201 6.1499,0.25 8.1,2.7101 3.4199,4.34 3.01,11.8199 -1.76,15.0599 -4.27,2.61 -10.15,1.75 -13.9501,-1.3199 -4.2799,-3.7001 -5.08,-9.9801 -4.1599,-15.26 2.28,-9.88 11.3099,-17.73 21.38,-18.75 8.21,-0.8101 16.88,1.1899 23.38,6.4299 5.87,4.62 9.25,11.8301 10.3099,19.12 1.25,8.41 0.4301,17.4401 -3.78,24.9501 -6.5599,11.83 -22.0599,17.48 -34.7799,13.1799 -4,-1.11 -7.8,-2.8199 -11.86,-3.6599 4.87,6.22 10.83,11.5 16.2,17.2799 8.05,8.3101 16.17,16.5601 24.8099,24.24 8.17,7.0601 17.0801,14 27.8,16.53 8.52,1.97 18.26,1.5701 25.49,-3.84 8.78,-6.4 11.04,-19.16 7.0601,-28.88 -2.51,-5.91 -9.3101,-8.78 -15.4301,-8.1 -2.24,0.2799 -3.67,2.1599 -5.1799,3.61 4.1399,2.38 6.49,7.1699 5.08,11.89 -1.22,5.6899 -8.13,7.83 -13.17,6.2999 -4.89,-1.5599 -8.27,-6.27 -8.7799,-11.2799 -1.3701,-7.6801 3.2699,-15.55 10.1299,-18.92 4.8101,-2.62 10.5,-2.26 15.7401,-1.54 7.5199,1.16 14.7899,5.4501 18.38,12.3301 8.1799,14.75 2.3999,35.85 -12.8701,43.5 -12.09,5.95 -26.7899,4.6399 -38.6599,-1.2301 -15.54,-7.62 -27.5601,-20.4399 -39.3201,-32.7999 -5.9199,-6.13 -11.2799,-12.84 -17.83,-18.3101 2.08,6.4701 4.36,13 4.1801,19.92 0.3799,10.71 -3.51,22.03 -11.76,29.16 -12.7001,10.61 -34.9401,7.62 -43.2301,-7.14 -7.0699,-11.03 -2.58,-27.3201 8.7401,-33.61 7.7699,-4.2301 19.75,-2.14 23.1799,6.7699 2.72,6.5701 -1.1,17.8501 -9.75,16.05 -6.91,-1.17 -7.13,-9.45 -6.91,-14.95 -2.1799,-0.9301 -4.7,1 -6.47,2.2899 -6.08,5.92 -5.78,16.77 -0.17,22.9401 8.6201,10.08 26.63,8.9399 34.0601,-1.99 4.39,-6.5801 4.96,-14.92 4.3199,-22.5901 -0.6,-9.45 -4.12,-19.1 -11.2799,-25.5499 -7.4501,-6.83 -17.67,-9.5701 -27.52,-10.4 -15.49,-1.78 -31.93,3.99 -42.36,15.6901 -8.89,10.0499 -11.66,24.2699 -9.91,37.3099 0.83,5.4401 3.16,11.2 8.11,14.12 5.26,3.14 13.11,2.9401 17.12,-2.12 3.38,-4.62 1.31,-11.62 -3.86,-13.92 -0.89,2.75 -1.89,6.2001 -5.07,7.0801 -3.08,0.21 -5.32,-2.55 -6.17,-5.2101 -1.69,-4.5399 1.46,-9.9399 6.14,-10.9399 7.78,-1.8101 16.17,4.22 17.33,12.0699 0.92,6.27 -0.54,13.5701 -5.86,17.5601 -6.4,4.7 -15.45,4.64 -22.43,1.29 -7.07,-3.37 -10.81,-10.75 -12.77,-17.9601 -1.68,5.73 -3.95,11.6901 -8.88,15.42 -6.2,4.8099 -14.99,6.28 -22.37,3.5699 -11.38,-4.2699 -13.45,-21.6899 -4.47,-29.33 3.79,-3.23 9.63,-5.34 14.22,-2.4399 5.76,3.25 6.01,13.5199 -0.67,15.7799 -4.16,1.17 -6.05,-3.6899 -6.61,-6.88 -2.04,1.3301 -4.24,2.8401 -5.03,5.28 -1.28,4.25 0.27,9.76 4.58,11.67 4.63,2.12 10.3,1.1899 14.49,-1.55 4.97,-3.49 7.03,-9.65 7.61,-15.45 1.1,-11.87 -1.44,-24.5601 -9.08,-33.97 -10.69,-13.05 -28.6,-19.0701 -45.11,-16.9701 -9.95,0.9301 -20.21,4.17 -27.34,11.48 -7.05,7.2301 -9.96,17.5801 -10.02,27.4801 -0.12,7.21 1.05,14.9199 5.62,20.76 4.13,5.34 11.11,7.7599 17.71,7.6299 8.25,-0.02 16.61,-5.4099 18.89,-13.5499 1.5,-5.65 0.44,-12.63 -4.38,-16.42 -1.89,-1.58 -4.35,-2.14 -6.63,-2.85 0.66,3.79 1.1,7.9301 -0.66,11.53 -2.52,5.5699 -11.8,5.74 -14.48,0.22 -2.32,-5.0699 -2.38,-11.79 1.59,-16.0599 4.63,-5.25 12.75,-6.1001 19.03,-3.7001 7.88,3.11 12.64,11.3201 13.76,19.4301 1.11,6.58 -1.77,13.14 -5.73,18.25 -10.2,12.89 -32.13,13.71 -43.22,1.5599 -7.62,-8.5399 -10.53,-20.61 -8.99,-31.8199 0.25,-5.11 2.08,-9.92 2.97,-14.91 -17.6,16.3199 -31.61,37.02 -52.88,49.0699 -9.37,5.3701 -20.42,8.2201 -31.21,6.7101 -7.71,-0.91 -15.39,-4.39 -20.25,-10.5801 -6.82,-8.74 -8.97,-20.8899 -5.58,-31.4399 1.8,-5.98 5.81,-11.4 11.37,-14.37 5.29,-2.91 11.4901,-3.71 17.45,-3.33 8.09,0.5399 15.72,6.59 17.43,14.63 1.1,5.7599 -0.39,12.6799 -5.56,16.0599 -4.67,3.3101 -11.98,2.27 -15.14,-2.62 -2.93,-4.76 -1.36,-11.83 4,-14.11 -1.46,-1.33 -2.77,-3.1 -4.78,-3.53 -6.37,-0.9299 -13.6,2.2001 -16,8.4401 -3.77,9.73 -1.41,22.4199 7.45,28.63 6.99,5.1399 16.31,5.59 24.54,3.85 9.96,-2.12 18.42,-8.22 26.05,-14.6801 12.99,-11.25 24.51,-24.02 36.39,-36.39 2.1,-2.33 4.56,-4.4099 6.02,-7.23 -6.37,2.02 -12.58,5 -19.37,5.2001 -9.63,0.24 -19.68,-4.16 -25.01,-12.37 -4.51,-6.7301 -5.8,-15.0901 -5.41,-23.04 0.4299,-7.6398 2.8499,-15.5198 8.2999,-21.0897 z"
         id="path174" />
      <path
         style="fill:#997fb8;stroke:#020202;stroke-width:0.0938;fill-opacity:0.80000001"
         inkscape:connector-curvature="0"
         d="m 1628.89,1097.71 c -5,-3.35 -6.33,-11.2899 -2.87,-16.0299 3.79,-0.8201 6.6799,2.96 8.7,5.6899 1.9,2.3199 1.4601,5.33 0.67,8.01 -1.9599,1.29 -4.16,2.13 -6.5,2.33 z"
         id="path176" />
      <path
         style="fill:#997fb8;stroke:#020202;stroke-width:0.0938;fill-opacity:0.80000001"
         inkscape:connector-curvature="0"
         d="m 1645.5601,1100.6801 c 3.2699,-5.6801 4.87,-12.12 5.5199,-18.6001 1.3501,5.17 3.13,10.63 1.51,15.9701 -1.4,6.5699 -6.35,12.5699 -4.96,19.5599 2.58,5.03 8.1,7.87 13.22,9.77 6.67,-1.9401 12.8,-5.27 18.3201,-9.45 0.34,4.4299 -3.3101,7.4299 -6.51,9.7799 -4.54,3.3301 -10.3101,3.92 -15.7201,4.49 -8.0699,0.6801 -16.5099,-0.4399 -23.6,-4.5 -3.86,-2.1 -7.09,-5.09 -10.33,-7.98 -6.04,1.9 -8.53,8.05 -11.05,13.25 -2.46,5.17 -6.1599,10.29 -11.83,12.14 -7.83,2.71 -16,0.07 -23.75,-1.52 3.74,-0.6899 7.99,-0.5599 11.04,-3.24 3.37,-2.61 4.3999,-6.96 5.26,-10.9199 1.2799,-5.38 4.3099,-10.7301 9.33,-13.4 5.12,-2.8101 11.39,-2.3301 16.77,-0.52 -0.07,-0.25 -0.2101,-0.73 -0.27,-0.98 -4.98,-5.15 -9.8101,-11.23 -17.08,-13.0801 -7.6101,-1.75 -15.88,0.4501 -22.27,4.74 -2.98,4.26 -5.6801,8.8201 -9.61,12.3301 -8.55,8.5499 -20.64,12.37 -32.4301,13.47 -3.78,4.04 -8.0699,7.63 -11.08,12.33 -3.0801,-4.86 -7.5601,-8.48 -11.37,-12.6899 -2.7001,-0.29 -5.38,-0.67 -8.03,-1.12 -4.22,3.42 -9.01,6.58 -14.54,7.14 -6.41,0.84 -13.12,-1.53 -17.49,-6.29 -2.13,-2.63 -5.71,-2.47 -8.72,-2.9299 2.91,-0.9301 5.97,-2.6001 9.08,-1.4301 3.4401,0.87 6.0601,3.38 9.01,5.21 6.64,2.4301 14.22,1.4501 20.36,-1.9299 -9.9,-1.9501 -19.59,-4.79 -29.4099,-7.0801 -3.8501,-1.09 -7.9901,-2.24 -10.8201,-5.23 -1.8099,-1.96 -1.74,-4.75 -1.96,-7.21 1.03,2.54 1.4,5.66 3.7999,7.39 3.92,3.02 9,3.6 13.64,4.87 -2.2,-3.34 -3.9299,-7.02 -4.25,-11.04 3.88,-4.45 5.65,-10.25 5.67,-16.08 1.87,5.15 2.97,11.5699 -0.9301,16.12 -3.26,3.4399 -0.47,8.01 1.5601,11.29 10.5499,2.8999 21.22,5.45 32.09,6.8099 -0.38,-2.05 -1.22,-4.1801 -0.63,-6.25 0.73,-3.6 3.61,-6.16 6.4,-8.27 2.24,1.4301 4.54,3.37 7.41,3.11 2.0299,-0.5699 3.61,-2.1499 5.4199,-3.2 3,2.05 5.9601,4.74 6.7001,8.47 0.59,2.1801 -0.41,4.34 -0.78,6.48 14.25,-1.77 29.75,-7.95 36.33,-21.6499 -6.2899,2.96 -12.5399,6.5099 -19.59,7.2 -3.0699,0.2 -5.04,3.22 -8.11,3.52 -4.95,1.01 -9.0699,-2.74 -11.77,-6.42 1.42,-2.1899 3.15,-4.41 3.23,-7.14 -0.6,-2.22 -2.1899,-3.98 -3.2899,-5.9299 2.47,-3.2101 5.6499,-6.65 10.0299,-6.66 4.0901,-0.14 7.4501,2.6801 10.05,5.54 2.62,2.9199 5.5599,5.5299 8.87,7.6499 -3.3,2.02 -6.25,4.55 -8.83,7.4301 10.38,-0.83 18.7999,-7.36 27.85,-11.76 7.3199,-3.61 16.29,-4.9 23.89,-1.38 1.65,0.8101 3.4099,4.11 5.11,1.5701 2.33,4.97 6.79,8.2599 10.45,12.1799 3.1801,3.13 6,6.8101 10.0601,8.9 7.1599,4.25 15.72,5.92 23.97,4.75 -8.33,-5.09 -14.22,-13.12 -19.26,-21.29 -1.85,-3.13 -3.8099,-6.25 -4.9,-9.73 2.11,1.14 2.9,3.47 4.04,5.4401 1.62,3.0299 3.49,5.9099 5.48,8.73 0.3501,-3.8303 1.7301,-7.4503 3.7002,-10.7302 z"
         id="path178" />
      <path
         style="fill:#997fb8;stroke:#020202;stroke-width:0.0938;fill-opacity:0.80000001"
         inkscape:connector-curvature="0"
         d="m 589.12,1093.16 c 22.89,-6.98 46.88,-10.79 70.83,-9.67 20.95,0.95 41.75,5.5 61.14,13.5 10.86,4.5601 21.5,10.53 29.3799,19.47 5.63,6.36 9.41,14.87 8.5601,23.48 -0.7,8.16 -5.08,15.55 -10.69,21.3301 -10.23,10.34 -24.1801,16.2999 -38.3701,18.74 -24.8,4.41 -51.15,-2.01 -71.4,-16.92 -5.23,19.64 -12.17,39.5901 -9.83,60.23 -6.88,-17.9199 -7.54,-38.35 -0.79,-56.4099 1.02,-3.0601 2.63,-5.86 3.72,-8.87 -0.22,-0.4301 -0.66,-1.29 -0.88,-1.73 -6.28,5.6599 -14.33,8.6599 -21.49,12.98 -13.51,7.8099 -27.84,15.6699 -37.17,28.59 11.23,-23.99 34.32,-41.4301 59.82,-47.74 1.42,0.58 2.75,1.37 4.18,1.98 2.88,4.42 7.57,7.09 11.78,10.0601 14.58,9.73 32.52,14.98 50.06,12.6499 10.83,-1.39 21.4901,-5 30.6201,-11.0499 7.05,-4.66 13.29,-11.15 16,-19.3 2.1,-6.26 1.08,-13.29 -2.25,-18.9299 -4.6,-7.87 -12.1801,-13.4301 -19.9901,-17.8201 -13.5099,-7.41 -28.42,-11.96 -43.46,-15.1 -27.07,-5.55 -55.36,-3.86 -81.92,3.5699 -37.34,10.25 -70.85,30.17 -104.9,47.9801 -16.81,8.74 -33.74,17.6599 -52.05,22.83 -13.61,3.96 -27.93,3.3199 -41.94,3.15 -46.52,-1.85 -92.34,-11.7001 -136.98,-24.4601 -19.93,-5.8099 -39.72,-12.1899 -59.12,-19.59 -13.7,-5.08 -30.77,-0.49 -39.15,11.72 -3.46,4.9501 -5.12,11.3301 -3.64,17.29 2.47,11.1801 14.45,19.5601 25.82,17.27 7.02,-1.34 13.75,-6.87 14.69,-14.22 1.13,-8.67 -8.32,-16.7201 -16.67,-13.86 -3.35,0.8099 -5.34,3.74 -7.27,6.34 -1.72,2.38 -6.44,0.38 -5.43,-2.62 2.46,-6.25 9.16,-10.0901 15.71,-10.28 9,-0.3199 17.88,6.26 19.78,15.14 1.48,5.84 -0.54,12.17 -4.42,16.66 -4.95,5.96 -12.72,9.2899 -20.42,9.1899 -14.12,0.12 -27.49,-11.51 -28.69,-25.6899 -0.79,-7.0901 1.69,-14.2101 5.96,-19.8101 8.14,-10.9399 22.42,-16.5 35.85,-15.0599 8.06,0.61 15.27,4.5499 22.84,6.98 44.54,15.62 90.34,28.09 137.09,34.9299 23.84,3.27 48.02,5.39 72.06,3.52 19.36,-2.49 36.99,-11.62 54.22,-20.24 C 515.75,1124.96 550.67,1104.74 589.12,1093.16 Z"
         id="path180" />
      <path
         style="fill:#997fb8;stroke:#020202;stroke-width:0.0938;fill-opacity:0.80000001"
         inkscape:connector-curvature="0"
         d="m 1228.74,1096.73 c 25.3201,-10.3199 52.97,-14.78 80.25,-13.09 42.2,2.51 81.92,19.0699 119.04,38.27 23.77,11.98 46.6799,25.85 71.5499,35.5599 10.3301,4 21.27,6.6801 32.41,6.72 47.9,1.0701 95.35,-8.34 141.4401,-20.6399 24.2799,-6.64 48.2999,-14.25 71.83,-23.1801 16.3099,-6.02 36.55,-0.5699 46.51,13.98 4.34,6.2001 6.5,14.16 4.73,21.65 -2.74,13.3101 -15.98,23.47 -29.53,22.71 -10.45,-0.25 -20.99,-7.26 -23.5599,-17.6799 -2.24,-8.7001 3.1,-18.1 11.21,-21.53 7.35,-3.54 17.04,-1.63 22.15,4.85 0.97,1.36 2.3099,2.8201 2.14,4.64 -0.04,2.64 -4.0801,3.6801 -5.51,1.58 -1.89,-2.63 -3.97,-5.5 -7.3,-6.2799 -8.59,-2.92 -18.22,5.77 -16.48,14.62 1.54,7.98 9.49,13.4099 17.3199,13.8199 10.5701,0.6 20.8401,-7.35 23.1001,-17.6699 1.84,-7.42 -1.24,-15.26 -6.39,-20.6201 -8.62,-9.23 -22.65,-12.59 -34.63,-8.8999 -50,18.5299 -101.6801,33.09 -154.52,40.71 -24.03,3.21 -48.4,5.27 -72.62,3.28 -18.83,-2.4301 -36.13,-10.9301 -52.95,-19.26 -36.9801,-18.63 -72.51,-41.0601 -112.51,-52.86 -25.89,-7.8 -53.53,-10.37 -80.26,-5.8301 -15.6801,2.66 -31.16,7.12 -45.4701,14.12 -8.2999,4.2001 -16.37,9.4701 -21.98,17.03 -4.35,5.8301 -6.4399,13.5801 -4.37,20.7001 2.67,9.5199 10.28,16.7699 18.52,21.7799 15.4401,9.13 34.39,12.48 51.9501,8.4701 10.35,-2.3201 20.08,-6.9801 28.7599,-13.02 3.6001,-2.63 7.8,-4.98 9.4801,-9.36 1.85,0.2 3.4399,-0.4401 4.1799,-2.2301 25.39,6.25 48.3201,23.4301 59.8201,47.12 -9.9401,-12.61 -24.1801,-20.6299 -37.89,-28.4399 -6.8101,-3.98 -14.23,-7.02 -20.3101,-12.13 -0.37,1.17 -1.02,2.4401 -0.16,3.6 9.66,19.85 9.9701,43.7101 1.6101,64.05 3.34,-20.55 -4.01,-40.66 -9.1901,-60.25 -14.76,10.27 -32.08,17.15 -50.15,18.15 -18.3099,1.09 -37.4399,-2.86 -52.6,-13.53 -7.76,-5.61 -14.63,-13.1901 -17.22,-22.59 -2.48,-8.55 -0.3201,-17.9601 4.87,-25.0701 7.9201,-11.18 20.38,-18.02 32.73,-23.25 z"
         id="path182" />
      <path
         style="fill:#997fb8;stroke:#020202;stroke-width:0.0938;fill-opacity:0.80000001"
         inkscape:connector-curvature="0"
         d="m 1615.59,1093.0699 c -0.1,-3.6799 4.41,-4.13 7.04,-5.1899 0.5,2.58 0.5,5.46 2.13,7.6899 1.26,1.4601 3.12,2.0801 4.6899,3.25 -5.0999,1.1001 -11.1499,-1.2399 -13.8599,-5.75 z"
         id="path184" />
      <path
         style="fill:#997fb8;stroke:#020202;stroke-width:0.0938;fill-opacity:0.80000001"
         inkscape:connector-curvature="0"
         d="m 1504.45,1093.6899 c 5.16,-1.5599 9.77,2.3 12.55,6.25 -1.45,2.16 -3.1899,4.3701 -3.2,7.1201 0.5399,2.2 2.2899,3.85 3.0499,5.99 -2.65,4.61 -8.5,8.35 -13.7899,5.8099 -5.92,-2.9 -9.04,-9.36 -14.9701,-12.33 6.3201,-3.1999 9.5201,-10.59 16.3601,-12.84 z"
         id="path186" />
      <path
         style="fill:#997fb8;stroke:#020202;stroke-width:0.0938;fill-opacity:0.80000001"
         inkscape:connector-curvature="0"
         d="m 423.29,1099.88 c 2.45,-3.05 5.48,-6.35 9.68,-6.49 3.87,-0.26 7.22,2.13 9.73,4.84 2.84,3.0801 5.85,6.05 9.47,8.24 -6.14,3.26 -9.37,10.29 -15.93,12.78 -5.31,1.84 -10.09,-2.2 -13,-6.22 1.07,-2.01 2.74,-3.77 3.25,-6.01 0.02,-2.75 -1.8,-4.9599 -3.2,-7.14 z"
         id="path188" />
      <path
         style="fill:#997fb8;stroke:#020202;stroke-width:0.0938;fill-opacity:0.80000001"
         inkscape:connector-curvature="0"
         d="m 460.16,1111.84 c -3.87,-4.47 -2.67,-10.76 -1.02,-15.88 0.34,5.5601 1.8,11.0801 5.36,15.48 1,4.0901 -1.79,8.0601 -3.7,11.52 4.76,-1.2799 10.1,-1.8199 13.98,-5.1699 2.51,-1.89 2.28,-5.29 2.94,-8.03 -0.01,3.01 0.6,6.63 -2.09,8.77 -4.6,3.99 -10.95,4.6899 -16.63,6.1899 -7.56,2.02 -15.14,3.99 -22.83,5.47 4.97,3.0601 11.09,3.9901 16.8,2.9301 4.73,-0.35 7.52,-4.9 12,-6.01 3.19,-1.34 6.41,0.3201 9.41,1.35 -2.83,0.4701 -6.2,0.2001 -8.29,2.54 -3.85,4.2 -9.4,6.83 -15.13,6.79 -6.06,0.1699 -11.74,-2.7101 -16.3,-6.51 -0.44,-0.37 -2.3,-1.77 -0.97,-2.25 8.41,-1.3 16.63,-3.53 24.86,-5.65 2.29,-3.2401 4.93,-8.0602 1.61,-11.5401 z"
         id="path190" />
      <path
         style="fill:#997fb8;stroke:#020202;stroke-width:0.0938;fill-opacity:0.80000001"
         inkscape:connector-curvature="0"
         d="m 472.29,1097.39 c 3.42,-0.78 6.35,2.66 7.24,5.63 0.45,4.48 -6.12,6.6 -8.54,2.95 -0.96,-2.77 -0.96,-6.43 1.3,-8.58 z"
         id="path192" />
      <path
         style="fill:#997fb8;stroke:#020202;stroke-width:0.0938;fill-opacity:0.80000001"
         inkscape:connector-curvature="0"
         d="m 1465.4301,1097.5699 c 1.6699,-1.0699 3.5599,0.12 3.99,1.91 0.7,2.61 1.1,6.59 -1.88,7.96 -3.0701,1.55 -7.13,-1.2 -6.77,-4.5499 0.7199,-2.31 2.4799,-4.28 4.66,-5.3201 z"
         id="path194" />
      <path
         style="fill:#997fb8;stroke:#020202;stroke-width:0.0938;fill-opacity:0.80000001"
         inkscape:connector-curvature="0"
         d="m 412.13,1101.29 c 3.63,-1.7201 8.12,1.8099 7.6,5.73 -0.27,4.08 -5.58,6.7 -8.82,3.98 -3.59,-2.3199 -2.76,-8.3 1.22,-9.71 z"
         id="path196" />
      <path
         style="fill:#997fb8;stroke:#020202;stroke-width:0.0938;fill-opacity:0.80000001"
         inkscape:connector-curvature="0"
         d="m 1524.1801,1101.28 c 4.1899,-1.98 9.0599,3.01 7.1599,7.21 -1.24,3.5701 -6.24,4.83 -8.9199,2.13 -3.1601,-2.5501 -2.0401,-8.07 1.76,-9.34 z"
         id="path198" />
      <path
         style="fill:#997fb8;stroke:#020202;stroke-width:0.0938;fill-opacity:0.80000001"
         inkscape:connector-curvature="0"
         d="m 657.5,1117.09 c 0,-4.08 2.27,-8.73 6.51,-9.74 2.88,-0.89 3.61,2.7101 5.03,4.3101 -1.83,-0.13 -3.9,-1.62 -5.48,-0.11 -3.21,1.8899 -3.3,5.9299 -3.44,9.22 1.38,-1.63 2.49,-4.1 4.94,-4.15 2.13,-0.3 4.31,1.3101 4.54,3.48 0.58,3.52 -2.13,6.28 -4.1,8.84 3.13,2.0601 6.54,3.6901 10.16,4.7201 -0.39,-2.62 -1.11,-5.4401 0.13,-7.92 3.17,-6.22 13.06,-7.48 17.64,-2.21 4.21,5.52 0.59,13.24 4.18,18.98 1.58,2.11 5.35,1.11 5.74,-1.49 0.51,-2.0701 -1.35,-3.55 -2.16,-5.21 0.46,-1.65 2.66,-1.5601 3.99,-1.14 3.5,1.61 3.43,6.9099 0.55,9.1 -2.81,2.33 -6.78,1.6 -9.87,3.28 -4.99,2.51 -10.1,5.48 -15.87,5.4399 -5.88,-0.05 -11.94,-5.46 -10.8,-11.64 0.27,-2.53 2.67,-3.83 4.55,-5.12 -3.5,-1.25 -6.78,-3.04 -9.76,-5.24 -0.83,0.96 -1.67,1.9401 -2.5,2.9301 0.97,1.35 2.58,2.6599 2.06,4.5699 -0.95,3.25 -3.9,5.5701 -4.57,8.96 -0.74,2.5 1.07,4.6801 2.04,6.8401 -2.31,-0.6901 -4.95,-1.17 -6.48,-3.2001 -2.2401,-2.71 -1.25,-6.46 -0.97,-9.6 -0.78,0.3 -2.35,0.9 -3.14,1.2 0.46,-3.35 2.2,-6.73 5.59,-7.87 2.77,-0.7999 4.72,-2.9299 6.69,-4.8999 -3.1,-3.3503 -5.42,-7.6602 -5.2,-12.3302 m 7.06,10.56 c 1.81,-2.78 3.59,-6.73 0.62,-9.39 -4.09,1.59 -4.21,7.16 -0.62,9.39 z"
         id="path200" />
      <path
         style="fill:#997fb8;stroke:#020202;stroke-width:0.0938;fill-opacity:0.80000001"
         inkscape:connector-curvature="0"
         d="m 1283.5601,1111.85 c 1.0599,-1.5599 1.46,-3.98 3.48,-4.6 4.95,-0.1 7.98,5.33 7.84,9.78 0.4,4.78 -2.17,9.01 -5.12,12.52 2,2.0499 4.17,4.01 6.98,4.88 3.16,1.1899 4.6801,4.4399 5.35,7.5499 -1.11,-0.2999 -2.21,-0.59 -3.2899,-0.88 0.5399,2.9601 1.2899,6.35 -0.5801,9.04 -1.45,2.39 -4.36,2.91 -6.7999,3.6899 0.7999,-1.89 2.3999,-3.64 2.1799,-5.8099 -0.12,-4.3 -4.4399,-6.92 -4.87,-11.1 0.55,-1.3501 1.4301,-2.5 2.24,-3.6801 -0.88,-0.92 -1.75,-1.8199 -2.59,-2.71 -2.91,2.1799 -6.11,3.95 -9.54,5.1699 1.85,1.39 4.2101,2.7201 4.51,5.29 0.9401,6.25 -5.36,11.74 -11.36,11.51 -6.3199,-0.06 -11.59,-3.89 -17.22,-6.1801 -3.65,-0.7699 -8.6801,-1.0699 -9.96,-5.36 -1.7401,-4.11 3.1899,-8.58 6.8799,-5.5299 -1.35,1.7699 -3.4299,3.7899 -2.37,6.2599 0.9301,2.41 4.6101,2.63 5.8301,0.3301 2.9199,-5.46 0.04,-12.29 3.2999,-17.64 4.29,-6.62 16.3201,-4.99 18.66,2.5699 0.73,2.2101 -0.04,4.51 -0.38,6.7301 3.61,-1.05 7.02,-2.67 10.17,-4.7401 -1.74,-2.4399 -4.17,-4.8199 -4.17,-8 -0.1,-2.2599 1.9,-4.5699 4.25,-4.3199 2.53,-0.26 3.74,2.35 5.34,3.8101 -0.1,-3.3 -0.45,-7.3301 -3.72,-9.0701 -1.62,-1.2697 -3.4101,0.1203 -5.0399,0.4903 m 2.7199,7.5 c -1.9601,2.78 0.26,5.98 1.9099,8.3 0.8301,-1.14 1.67,-2.27 2.53,-3.38 -0.1399,-2.32 -1.3099,-7.04 -4.4399,-4.92 z"
         id="path202" />
      <path
         style="fill:#997fb8;stroke:#020202;stroke-width:0.0938;fill-opacity:0.80000001"
         inkscape:connector-curvature="0"
         d="m 1317.21,1146.25 c 23.73,-12.91 52.7001,-14.76 78.27,-6.47 -21.84,-1.99 -43.1799,4.0499 -64.25,8.8099 -4.78,1.3901 -9.9,0.3101 -14.02,-2.3399 z"
         id="path204" />
      <path
         style="fill:#997fb8;stroke:#020202;stroke-width:0.0938;fill-opacity:0.80000001"
         inkscape:connector-curvature="0"
         d="m 554.24,1140.78 c 23.22,-7.72 49.36,-6.6901 71.74,3.3099 2.07,0.9601 4.27,1.79 6.05,3.27 -4.1201,2.6801 -9.3101,3.49 -14.03,2.14 -20.91,-4.7299 -42.1,-10.7899 -63.76,-8.7199 z"
         id="path206" />
    </g>
  </g>
</svg>
